<?xml version="1.0" encoding="utf-8"?>
<!-- Generator: Adobe Illustrator 21.1.0, SVG Export Plug-In . SVG Version: 6.00 Build 0)  -->
<svg version="1.1" id="Layer_1" xmlns="http://www.w3.org/2000/svg" xmlns:xlink="http://www.w3.org/1999/xlink" x="0px" y="0px"
	 viewBox="0 0 186.6 186.6" style="enable-background:new 0 0 186.6 186.6;" xml:space="preserve">
<style type="text/css">
	.st0{fill:#FFFFFF;}
	.st1{fill:#FF4500;}
</style>
<path class="st0" d="M140,13.1c2.2-3.6,3.9-7.2,6.2-10.2c1.2-1.5,3.6-3,5.4-2.9c1.6,0,4,1.8,4.7,3.4c3.7,9,6.8,18.2,10.3,27.2
	c2.3,6,4.5,12.2,7.6,17.8c31.5,56.8-6,129.3-70.4,136c-19.1,2-37-1.4-54-10.2c-0.9-0.5-1.8-0.8-2.8-1.3c-2.2,3.6-4.3,7.1-6.6,10.5
	c-2.8,4.3-7.7,4.2-9.6-0.5c-2.6-6.3-4.4-12.9-6.8-19.2c-2.8-7.4-5.1-15.3-9.2-21.9C-20.1,85.2,14.3,10.8,80,1.5
	c19.5-2.8,38.1,0.4,55.6,9.4C137,11.6,138.3,12.2,140,13.1z"/>
<g>
	<path d="M36.3,181.3c-4.7-13.6-9.3-26.9-14.1-40.8c14.4-2,28.4-4,43.1-6c-2.8,4.6-5.2,8.6-7.6,12.6c-2.5,4.1-2.1,6.2,2.1,8.5
		c41.6,23.2,93.4,1.5,104.6-44.7c1.5-6.1,1.5-12.6,1.9-18.9c0.1-2.1,0.5-3.5,2.5-4.4c3-1.5,5.8-3.3,9.1-5.1c1.9,10.8,1,21-1.6,31.1
		c-9.5,37-40.5,62.2-78.6,63.8c-15.3,0.6-29.7-3.4-43.1-10.9c-5.9-3.3-6.8-3-10.3,2.7c-2.3,3.7-4.6,7.4-6.9,11.1
		C37.1,180.5,36.9,180.6,36.3,181.3z"/>
	<path d="M151.9,5.8c5.2,14,10.1,27.1,15.2,40.7c-14.2,2.3-28,4.6-42.9,7.1c2.7-4.8,5-8.8,7.3-12.8c3.1-5.4,2.7-7.1-2.9-10
		c-37.2-19.6-82.1-4.1-99.2,34.4c-4.2,9.5-5.9,19.6-5.6,29.9c0.1,2.3-0.5,3.7-2.6,4.8c-2.9,1.4-5.6,3.2-8.8,5
		c-1.6-8.5-1.3-16.6,0.2-24.5C20.1,40.4,50,13.4,90.4,10.2c16-1.3,30.9,3,45,10.6c4.7,2.5,6.4,2.1,9.1-2.4
		C146.8,14.4,149.1,10.4,151.9,5.8z"/>
</g>
<g>
	<path class="st1" d="M141.1,77.9c0.1,8.3-6.6,15.1-14.9,15.1c-8.2,0-15.1-6.8-15.2-14.9c0-8.1,6.9-15,15-15.1
		C134.4,62.9,141.1,69.5,141.1,77.9z"/>
	<path class="st1" d="M60.6,62.9c8.2,0.1,14.8,6.9,14.8,15.2c-0.1,8.3-6.9,15-15.1,14.8c-8.2-0.1-15-7.1-14.9-15.2
		C45.5,69.6,52.4,62.9,60.6,62.9z"/>
	<path d="M97.4,132c-1.5,0.1-3,0.1-4.4,0c-8.2-0.6-17.6-1.3-24.9-4.8c-3.5-1.7-6.8-4.2-9.8-6.7c-1.8-1.4-1.8-3.9,0.1-5.2
		c1.2-0.8,4-1.2,4.9-0.4c11.1,9.5,24.4,9.1,37.7,8.4c8.1-0.5,15.7-2.6,22.1-8.1c1-0.9,3.9-0.6,5.2,0.2c2,1.4,1.7,3.8-0.1,5.5
		c-4.6,4.7-9.8,7.8-16.2,9C106.5,131,104.3,131.4,97.4,132z"/>
</g>
</svg>
